<svg xmlns="http://www.w3.org/2000/svg" viewBox="0 0 136.2 81.72"><defs><style>.cls-1{fill:#2b2129;}</style></defs><title>Asset 46</title><g id="Layer_2" data-name="Layer 2"><g id="Main_page" data-name="Main page"><g id="Head"><path class="cls-1" d="M63.46,41.48a13.54,13.54,0,0,0,5,1.89,6.85,6.85,0,0,0,4.62-1.89l39-37.57a14.41,14.41,0,0,1,19.66-.07L132,4a13.34,13.34,0,0,1,.63,18.86q-.28.3-.58.58L73.37,79.77a7.36,7.36,0,0,1-4.92,2,14.47,14.47,0,0,1-5.28-2l-59-56.3a13.34,13.34,0,0,1-.5-18.86q.28-.3.58-.58l.25-.19a14.53,14.53,0,0,1,19.75.07Z"/></g></g></g></svg>