<svg xmlns="http://www.w3.org/2000/svg" viewBox="0 0 50 50"><defs><style>.cls-1{fill:#f1f1f1;}</style></defs><title>Asset 43</title><g id="Layer_2" data-name="Layer 2"><g id="Main_page" data-name="Main page"><g id="Footer"><path class="cls-1" d="M25,0A25,25,0,1,0,50,25,25,25,0,0,0,25,0Zm6,43.46c-1,.18-1.28-.39-1.28-.92V37.46a4.55,4.55,0,0,0-1.29-3.53A8.34,8.34,0,0,0,37,25.86a8.2,8.2,0,0,0-.07-1.27,7.35,7.35,0,0,0-1.86-5,7,7,0,0,0-.18-5s-1.57-.49-5.14,1.94a17.49,17.49,0,0,0-9.35,0c-3.57-2.43-5.14-1.94-5.14-1.94a7,7,0,0,0-.18,5,7.39,7.39,0,0,0-1.93,5.08,8.31,8.31,0,0,0,7.25,9.28,8.5,8.5,0,0,0,1.25.07,4,4,0,0,0-1.18,2.54,4,4,0,0,1-5.35-1.46l-.07-.13A3.93,3.93,0,0,0,12.21,33s-1.82,0,0,1.16a5,5,0,0,1,2.07,2.79s1.11,3.53,6.28,2.22v3.53a1,1,0,0,1-1.29.92A19,19,0,0,1,25.06,6.68h-.19l.37-.15A18.69,18.69,0,0,1,43.68,25.43v0s0,0,0,0A19,19,0,0,1,31,43.46Z"/></g></g></g></svg>