<svg xmlns="http://www.w3.org/2000/svg" viewBox="0 0 50 50"><defs><style>.cls-1{fill:#f1f1f1;}</style></defs><title>Asset 42</title><g id="Layer_2" data-name="Layer 2"><g id="Main_page" data-name="Main page"><g id="Footer"><path class="cls-1" d="M11.25,24.68A6.31,6.31,0,0,1,12.31,26c.18.21.32.67.56.67,1.09.56,2,1.55,3.53,1.52h.46a.5.5,0,0,0,.39,0c.81-.42,1.87.07,2.5-1.1h.32a2.75,2.75,0,0,0,2.68-1.47c.28-.39.14-.67-.39-.67a10.13,10.13,0,0,1-1.83,0c-1.06-.21-2.22-.25-2.86-1.41-.07-.25-.46-.25-.71-.25a1.45,1.45,0,0,1-1.41-1.16,1.87,1.87,0,0,0-.71-1,1.8,1.8,0,0,1-1.06-1.87c0-.32.18-.74,0-.92a2.12,2.12,0,0,1-.63-2,.56.56,0,0,0-.25-.46.46.46,0,0,0-.46,0c-.49.71-.92,1.41-1.38,2.12a3.78,3.78,0,0,0-.49,1,12.56,12.56,0,0,0-.49,2.5c0,.21.56.49.92.78a1.55,1.55,0,0,0,.25,2.43Z"/><path class="cls-1" d="M25,16.55a2,2,0,0,0-.32,1.1,2.29,2.29,0,0,0-.32.28V21.2c0,.32.32.5.32.85a11.14,11.14,0,0,1,1-1.46c.35-.39.92-.6,1.21-1,.64-1,1.67-1.14,2.63-1.56a3.9,3.9,0,0,1,2.49-.57,1.42,1.42,0,0,0,.71,0,2.38,2.38,0,0,1,2.66.21,1.6,1.6,0,0,0,.82.32h1.42l1.17.21a10.29,10.29,0,0,0-.64-2.34,7.63,7.63,0,0,0-1.53-1.63h-.46a1.28,1.28,0,0,1-1.28-.75A.89.89,0,0,0,34,13.1,2.34,2.34,0,0,1,32,12.75a.75.75,0,0,0-.53-.18l-2.73,1a12.16,12.16,0,0,0-1.53.53,1.56,1.56,0,0,0-.71.6,2.61,2.61,0,0,1-1.07,1.21C25.24,15.94,25.28,16.19,25,16.55Z"/><path class="cls-1" d="M17.37,19.28l1.42,3H19l2.63,1.31a3.55,3.55,0,0,0,.78,0,3.13,3.13,0,0,0,0-.85c-.43-.82-1.53-1.42-.78-2.59V17.54a1.85,1.85,0,0,1,.5-1.81c.39-.36.39-.6.39-1.17a1.46,1.46,0,0,1,.85-1.67,2.17,2.17,0,0,0,1.42-1.53,11.34,11.34,0,0,1,.6-1.56l-1.71-.43H23a8.2,8.2,0,0,0-1.49.39c-.39.18-.64.71-1,.71a2.38,2.38,0,0,0-1.6,1.17,3.56,3.56,0,0,1-.6.68,4.19,4.19,0,0,0-1,2.91,2.37,2.37,0,0,1-.5,1.81c-.21.18-.11.89,0,1.32A3,3,0,0,0,17.37,19.28Z"/><path class="cls-1" d="M22.86,34.83a2.78,2.78,0,0,1,1.55-1.95.4.4,0,0,0,0-.29c.11-.9,1.19-1.52.65-2.56a.29.29,0,0,1,0-.25,2,2,0,0,0,.18-1.95,7.39,7.39,0,0,1,0-1.26H25c-.11,1-1.59,1-1.59,2.16,0,.22-.51.47-.69.58a4.92,4.92,0,0,0-.51.4,1.73,1.73,0,0,1-1.66,1,3.61,3.61,0,0,0-.9.36,4.37,4.37,0,0,1-1.33.51,12.18,12.18,0,0,0-2,.4h-.85s-2.15-1.48-3.53-1.08h-.56a.57.57,0,0,0-.35.23c.25.63-.39,1.38.42,1.9a6.55,6.55,0,0,1,.78,1,2.75,2.75,0,0,0,.71.53c.56.28,1.06,0,1.62.81s1.48.56,2.15,1.13l.25-1.23c.28.39.53,1,.74,1,1,0,2,.25,2.92-.46V36a2.63,2.63,0,0,1,1.88-.9C22.58,35.08,22.86,34.83,22.86,34.83Z"/><path class="cls-1" d="M25,0A25,25,0,1,0,50,25,25,25,0,0,0,25,0ZM43.42,28.69a2,2,0,0,0-.71,1.91,1.77,1.77,0,0,1-.35,1.13c-.67.81-1.41,1.56-2.12,2.33a1.48,1.48,0,0,0-.39.53c-.14.67-.57.67-1.06.67a1.38,1.38,0,0,0-1.2.71c-.46,1-1.59,1.38-2.19,2.23a.67.67,0,0,1-.46.18.75.75,0,0,0-.78.81,2.51,2.51,0,0,1-2.44,2.19,1.27,1.27,0,0,0-.71.32,1.73,1.73,0,0,1-1.91,1A3.92,3.92,0,0,0,27.2,43a6,6,0,0,1-4.56-.53L22,42.15a6.12,6.12,0,0,1-1.41-.71A4.24,4.24,0,0,0,18,40.1a5.88,5.88,0,0,1-1.17-.35,2.55,2.55,0,0,0-.88,0,2.83,2.83,0,0,1-2.54-.6,4.24,4.24,0,0,0-1.45-.81,2.19,2.19,0,0,1-1.63-1.66,1.73,1.73,0,0,0-.78-1,1.56,1.56,0,0,1-1-1.66,2.16,2.16,0,0,0,0-.74c-.21-.92-.49-1.84-.71-2.76a.71.71,0,0,1,.18-.6c.85-.64.25-1-.35-1.38V25.49c0-.11-.28-.28-.28-.28A2.37,2.37,0,0,1,6.8,22a1.56,1.56,0,0,0,0-1c-.21-1-.28-1.95.81-2.51a.78.78,0,0,0,.28-.64c-.11-1.13.74-1.59,1.42-2.3s1.52-1.1,1.2-2.44c.57,1,1.52.5,2.05.6s.78-.18,1-.71a2.72,2.72,0,0,1,.85-1.24,3.29,3.29,0,0,0,1.27-1.56,2.51,2.51,0,0,1,.92-.92c.53-.39,1.24-.6,1.63-1.1a2.16,2.16,0,0,1,2.62-.64c.57.18.81.35,1.27-.32s1-.57,1.66-.35A4.42,4.42,0,0,0,26.59,7a4.63,4.63,0,0,0,.6.32,5.56,5.56,0,0,0,4,1.7c.53,0,.67,0,1.63,0s1.91,0,2.51.89a1.44,1.44,0,0,0,1.42.64l.2,0a1.8,1.8,0,0,1,1.89,1.72,1.59,1.59,0,0,0,.78.64,4.88,4.88,0,0,1,.92.78,9.38,9.38,0,0,1,.71,1.66,6.87,6.87,0,0,1,.28,1V19c0,.42-.21,1,0,1.21a3.09,3.09,0,0,1,.55,2,1.67,1.67,0,0,0,.49,1,2.71,2.71,0,0,1,.9,2.5,10.75,10.75,0,0,0,.21,1.8v.73A1.73,1.73,0,0,1,43.42,28.69Z"/><path class="cls-1" d="M39.57,26.74C39,26.25,39,25.19,39,24.91a3.38,3.38,0,0,0-.28-.78c-1.06-.11-1.45-1.06-2-1.69A2.15,2.15,0,0,0,34,21.91V21a5.85,5.85,0,0,0-2.08-.35,44.39,44.39,0,0,0-4.51,1.48,1.9,1.9,0,0,0-.67.56.49.49,0,0,0,0,.42.67.67,0,0,0,.46.28,10,10,0,0,1,1.69,0,21.15,21.15,0,0,1,2.64.92,4.48,4.48,0,0,0,.49.56c.18.18.39.49.63.49,1.09.21,1.48.42,1.48,1.55a.85.85,0,0,0,.63.88c1.13.35,1.13,1,1.13,2.12a.85.85,0,0,0,.25.67,1.59,1.59,0,0,1,.71,2.08.64.64,0,0,0,0,.56.78.78,0,0,0,.67,0,1.83,1.83,0,0,0,.53-.6,8.89,8.89,0,0,0,.85-1.27c.39-.81,1.3-1.45.74-2.61h-.11c-.18-.39,0-1.06,0-1.3S40.13,27.24,39.57,26.74Z"/><path class="cls-1" d="M32.7,30.58a9.55,9.55,0,0,0-1.47-2.75,2.46,2.46,0,0,0-2.32-1.16c-.15-1.23-1.33-.92-2.43-1.23.41.78.74,1.38,1,2a4.39,4.39,0,0,1,.26,1c0,.28-.18.18,0,.88s.77,1.41-.22,2v.39a2.51,2.51,0,0,1-.88,2.61,1.28,1.28,0,0,0-.29.67,2.73,2.73,0,0,1-1.4,1.8,2,2,0,0,0-.81,1q0,.08,0,.15a2.16,2.16,0,0,1-2.25,1.59,5.07,5.07,0,0,0,1.36.54,8.18,8.18,0,0,0,2.47,0,5.8,5.8,0,0,0,3-1.12h.42a.9.9,0,0,0,1-.6c.25-.46,1-1,1.23-1.2s.56-.53.56-.78a5.43,5.43,0,0,1,.94-2.19v-.62c0-.46-.41-.71,0-1.38S32.7,31.15,32.7,30.58Z"/></g></g></g></svg>