<svg xmlns="http://www.w3.org/2000/svg" viewBox="0 0 50 50"><defs><style>.cls-1{fill:#f1f1f1;}</style></defs><title>Asset 45</title><g id="Layer_2" data-name="Layer 2"><g id="Main_page" data-name="Main page"><g id="Footer"><path class="cls-1" d="M25,0A25,25,0,1,0,50,25,25,25,0,0,0,25,0ZM8.93,11.59a3.91,3.91,0,0,1,4.36-3.41,4,4,0,0,1,4.34,3.56,4,4,0,0,1-4.34,3.49,4,4,0,0,1-4.37-3.53Zm8.88,27a.75.75,0,0,1-.68.74H9.72A.75.75,0,0,1,9,38.64V17.49a.71.71,0,0,1,0-.08.75.75,0,0,1,.85-.63l7.24,0a.75.75,0,0,1,.75.74ZM42.41,26.3V38.64a.74.74,0,0,1-.74.74H35.26a.73.73,0,0,1-.72-.74V27.41a3.24,3.24,0,0,0-2.94-3.28h-.51a3.24,3.24,0,0,0-2.94,3.28V38.64a.73.73,0,0,1-.68.74H20.53a.74.74,0,0,1-.75-.74V17.49a.71.71,0,0,1,0-.08.75.75,0,0,1,.85-.63l7.25,0a.74.74,0,0,1,.75.74v1.12a9.77,9.77,0,0,1,5.64-1.83q.38,0,.77.06A8.49,8.49,0,0,1,42.41,26.3Z"/></g></g></g></svg>