<svg xmlns="http://www.w3.org/2000/svg" viewBox="0 0 50 50"><defs><style>.cls-1{fill:#f1f1f1;}</style></defs><title>Asset 44</title><g id="Layer_2" data-name="Layer 2"><g id="Main_page" data-name="Main page"><g id="Footer"><path class="cls-1" d="M25,0A25,25,0,1,0,50,25,25,25,0,0,0,25,0ZM41.8,35.92a2.5,2.5,0,0,1-2.47,2.54H10.58A2.54,2.54,0,0,1,8,35.92V21c1.48,1.13,3.53,2.64,10,7.37A12.42,12.42,0,0,0,25,31.76a12.49,12.49,0,0,0,6.74-3.53c6.56-4.58,8.61-6.1,10.05-7.23Zm0-19.28c-2.59,2-2.48,2-12,8.92-1.1.78-3.29,2.54-4.82,2.54s-3.86-1.76-4.85-2.57c-9.63-6.95-9.63-6.95-12-8.92V14a2.54,2.54,0,0,1,2.41-2.54H39.14a2.51,2.51,0,0,1,2.65,2.36c0,.06,0,.12,0,.18Z"/></g></g></g></svg>